# xmcd
#
# Track frame offsets:
#	150
#	19593
#	36438
#	52587
#	68975
#	84017
#	100969
#	124232
#	139300
#	156975
#	187218
#	211062
#	226171
#	241739
#	262553
#
# Disc length: 3762 seconds
#
# Revision: 1
# Processed by: cddbd v1.5.2PL0 Copyright (c) Steve Scherf et al.
# Submitted via: audiograbber 1.83.01
#
DISCID=bd0eb00f
DTITLE=Halden Wofford and The Hi*Beams - Live At Hodi's
DYEAR=2012
DGENRE=Honky Tonk
TTITLE0=Just Don't Care
TTITLE1=Fat Boy Rag
TTITLE2=Rose Marie
TTITLE3=Yodelin' Rhythm And Blues
TTITLE4=ABC
TTITLE5=Six More Miles
TTITLE6=The Angel Of Death
TTITLE7=Hippie In My House
TTITLE8=Highway 61 Revisited
TTITLE9=All Along The Watchtower
TTITLE10=The Best Of All Possible Worlds
TTITLE11=Dire Wolf
TTITLE12=Gotta Get Rid Of This Band
TTITLE13=Where Did You Sleep Last Night
TTITLE14=Floyd Hill Whiteout
EXTD=www.hibeams.com
EXTT0=
EXTT1=
EXTT2=
EXTT3=
EXTT4=
EXTT5=
EXTT6=
EXTT7=
EXTT8=
EXTT9=
EXTT10=
EXTT11=
EXTT12=
EXTT13=
EXTT14=
PLAYORDER=
